<svg xmlns="http://www.w3.org/2000/svg" viewBox="0 0 24 24" width="24" height="24">
  <!-- 小船船体 -->
  <path d="M3 18c2 1 5 1.5 9 1.5 4 0 7-0.5 9-1.5-2-3-6-4-9-4s-7 1-9 4z" fill="#5ab896"/>
  <!-- 船头 -->
  <path d="M2 18c0.5-2 1.5-3.5 3-4.5 0.8 1.5 1.5 3 2 4.5-1.5 0.5-3.5 0.5-5 0z" fill="#4a9d7c"/>
  <!-- 船帆 -->
  <path d="M10 5l-3 11h6L10 5z" fill="#ffffff" stroke="#5ab896" stroke-width="1"/>
  <!-- 桅杆 -->
  <rect x="9.5" y="3" width="1" height="14" fill="#3d8266"/>
  <!-- 波浪装饰 -->
  <path d="M4 20c1-0.5 2-1 3-0.5s2 0.5 3 0 2-0.5 3 0 2 0.5 3 0 2-0.5 3 0.5" fill="none" stroke="#5ab896" stroke-width="1" opacity="0.5"/>
</svg>
