<?xml version="1.0" encoding="UTF-8"?>
<svg xmlns:xlink="http://www.w3.org/1999/xlink" id="_层_1" xmlns="http://www.w3.org/2000/svg" viewBox="0 0 90.71 90.71">
    <defs>
        <style>
            .cls-1{fill:none;}.cls-2{fill:#2d2323;}.cls-3{fill:url(#_命名的渐变_7);}.cls-3,.cls-4,.cls-5{fill-rule:evenodd;}.cls-4{fill:url(#_命名的渐变_11);}.cls-5{fill:url(#_命名的渐变_11-2);}
        </style>
        <clipPath id="clippath">
            <path class="cls-1"
                  d="M963.05-316.6c1.67,0,3.22-.73,4.62-2.18,1.41-1.45,2.44-3.55,3.09-6.28,.66-2.73,.67-4.91,.05-6.55-.62-1.63-1.77-2.45-3.45-2.45h-2.38c-.53,0-.86,.26-.98,.79l-3.8,15.87c-.13,.53,.07,.79,.6,.79h2.25Zm9.73-49.99c-.53,0-.86,.26-.98,.79l-3.17,13.22c-.13,.53,.07,.79,.6,.79h.66c3.97,0,6.54-2.47,7.72-7.41s-.21-7.41-4.17-7.41h-.66Zm21.95,45.23c-2.01,8.38-6.24,14.81-12.69,19.31-6.45,4.5-13.82,6.74-22.11,6.74h-27.9c-.62,0-1.06-.18-1.33-.53-.27-.35-.33-.84-.18-1.45l21.24-88.6c.15-.62,.44-1.1,.88-1.45,.44-.35,.96-.53,1.58-.53h23.93c9.61,0,16.6,2.16,20.99,6.48,4.39,4.32,5.53,10.84,3.44,19.57-1.94,8.11-5.9,14.15-11.88,18.12-.53,.35-.69,.66-.49,.93,5.25,4.94,6.76,12.08,4.52,21.42Zm-56.45-47.21c-.15,.62-.44,1.1-.88,1.45-.44,.35-.96,.53-1.58,.53h-25.25c-.53,0-.86,.26-.98,.79l-3.04,12.69c-.13,.53,.07,.79,.6,.79h13.09c.62,0,1.06,.18,1.33,.53,.27,.35,.33,.84,.18,1.45l-4.15,17.32c-.15,.62-.44,1.1-.88,1.45-.44,.35-.96,.53-1.58,.53h-13.09c-.53,0-.86,.26-.98,.79l-3.07,12.83c-.13,.53,.07,.79,.6,.79h25.25c.62,0,1.06,.18,1.33,.53,.27,.35,.33,.84,.18,1.45l-4.15,17.32c-.15,.62-.44,1.1-.88,1.45-.44,.35-.96,.53-1.58,.53h-48.92c-.62,0-1.06-.18-1.33-.53-.27-.35-.33-.84-.18-1.45l21.24-88.6c.15-.62,.44-1.1,.88-1.45,.44-.35,.96-.53,1.58-.53h48.92c.62,0,1.06,.18,1.33,.53,.27,.35,.33,.84,.18,1.45l-4.15,17.32Zm-150.38,73.26c-1.23,0-1.85-.57-1.84-1.72l3.29-88.73,.13-.53c.25-1.06,1-1.59,2.23-1.59h21.55c1.32,0,1.88,.62,1.67,1.85l-5.17,40.33c-.04,.18,.06,.29,.32,.33,.25,.04,.41-.07,.48-.33l14.56-40.33c.38-1.23,1.24-1.85,2.56-1.85h16.13c1.32,0,1.88,.62,1.67,1.85l-4.15,40.46c-.04,.18,.09,.29,.38,.33s.48-.07,.54-.33l13.53-40.46c.38-1.23,1.19-1.85,2.43-1.85h21.02c1.5,0,1.95,.71,1.34,2.12l-38.19,88.73c-.54,1.15-1.43,1.72-2.66,1.72h-18.25c-1.32,0-1.88-.62-1.67-1.85l4.62-42.45c.06-.26-.06-.4-.37-.4s-.49,.13-.56,.4l-14.67,42.45c-.38,1.23-1.24,1.85-2.56,1.85h-18.38Z"/>
        </clipPath>
        <clipPath id="clippath-2">
            <path class="cls-1"
                  d="M46.68-66.89c.43,0,.83-.19,1.19-.56,.36-.37,.63-.91,.8-1.62,.17-.7,.17-1.26,.01-1.68-.16-.42-.46-.63-.89-.63h-.61c-.14,0-.22,.07-.25,.2l-.98,4.08c-.03,.14,.02,.2,.16,.2h.58Zm2.51-12.86c-.14,0-.22,.07-.25,.2l-.82,3.4c-.03,.14,.02,.2,.16,.2h.17c1.02,0,1.68-.64,1.99-1.91,.3-1.27-.05-1.91-1.07-1.91h-.17Zm5.65,11.64c-.52,2.16-1.61,3.81-3.27,4.97-1.66,1.16-3.56,1.74-5.69,1.74h-7.18c-.16,0-.27-.05-.34-.14-.07-.09-.08-.22-.05-.37l5.47-22.8c.04-.16,.11-.28,.23-.37,.11-.09,.25-.14,.41-.14h6.16c2.47,0,4.27,.56,5.4,1.67,1.13,1.11,1.42,2.79,.89,5.04-.5,2.09-1.52,3.64-3.06,4.66-.14,.09-.18,.17-.13,.24,1.35,1.27,1.74,3.11,1.16,5.51Zm-14.53-12.15c-.04,.16-.11,.28-.23,.37-.11,.09-.25,.14-.41,.14h-6.5c-.14,0-.22,.07-.25,.2l-.78,3.27c-.03,.14,.02,.2,.16,.2h3.37c.16,0,.27,.05,.34,.14,.07,.09,.08,.22,.05,.37l-1.07,4.46c-.04,.16-.11,.28-.23,.37-.11,.09-.25,.14-.41,.14h-3.37c-.14,0-.22,.07-.25,.2l-.79,3.3c-.03,.14,.02,.2,.16,.2h6.5c.16,0,.27,.05,.34,.14,.07,.09,.08,.22,.05,.37l-1.07,4.46c-.04,.16-.11,.28-.23,.37-.11,.09-.25,.14-.41,.14h-12.59c-.16,0-.27-.05-.34-.14-.07-.09-.08-.22-.05-.37l5.47-22.8c.04-.16,.11-.28,.23-.37,.11-.09,.25-.14,.41-.14h12.59c.16,0,.27,.05,.34,.14,.07,.09,.08,.22,.05,.37l-1.07,4.46ZM1.61-61.41c-.32,0-.48-.15-.47-.44l.85-22.83,.03-.14c.07-.27,.26-.41,.57-.41h5.55c.34,0,.48,.16,.43,.48l-1.33,10.38s.02,.07,.08,.09c.07,.01,.11-.02,.12-.09l3.75-10.38c.1-.32,.32-.48,.66-.48h4.15c.34,0,.48,.16,.43,.48l-1.07,10.41s.02,.07,.1,.09,.12-.02,.14-.09l3.48-10.41c.1-.32,.31-.48,.62-.48h5.41c.39,0,.5,.18,.35,.54l-9.83,22.83c-.14,.29-.37,.44-.68,.44h-4.7c-.34,0-.48-.16-.43-.48l1.19-10.92c.02-.07-.02-.1-.09-.1s-.13,.03-.14,.1l-3.78,10.92c-.1,.32-.32,.48-.66,.48H1.61Z"/>
        </clipPath>
        <linearGradient id="_命名的渐变_7" x1="32.42" y1="22.79" x2="90.54" y2="54.7"
                        gradientTransform="matrix(1, 0, 0, 1, 0, 0)" gradientUnits="userSpaceOnUse">
            <stop offset="0" stop-color="#e03633"/>
            <stop offset="1" stop-color="#e13735"/>
        </linearGradient>
        <linearGradient id="_命名的渐变_11" x1="30.75" y1="73.3" x2="27.06" y2="82.84"
                        gradientTransform="matrix(1, 0, 0, 1, 0, 0)" gradientUnits="userSpaceOnUse">
            <stop offset="0" stop-color="#e94542"/>
            <stop offset="1" stop-color="#d62f2b"/>
        </linearGradient>
        <linearGradient id="_命名的渐变_11-2" x1="45.1" y1="17.49" x2="38.12" y2="35.5" xlink:href="#_命名的渐变_11"/>
    </defs>
    <path class="cls-3"
          d="M89.85,51.01c0,6.98-1.64,13.58-4.56,19.43h-19.08c4.77-6.2,7.61-13.97,7.61-22.4,0-20.29-16.43-36.73-36.7-36.73-4.8,0-9.38,.92-13.58,2.59,6.63-4.09,14.43-6.44,22.79-6.44,24.03,0,43.51,19.5,43.51,43.55Z"/>
    <g>
        <path class="cls-4"
              d="M49.63,79.34c-1.14,.14-2.31,.22-3.49,.22-8.16,0-15.5-3.52-20.58-9.12H9.83c6.32,7.81,15.99,12.8,26.82,12.8,4.59,0,8.97-.9,12.98-2.52,0,0,0,0,.01,0,.29-.1,.49-.37,.49-.68s-.21-.59-.5-.69Z"/>
        <path class="cls-5"
              d="M36.65,14.31c-9.36,0-17.84,3.73-24.06,9.78h31.72c.61-.04,1.22-.07,1.83-.07,9.02,0,17.04,4.3,22.12,10.96-5.32-12.17-17.48-20.67-31.62-20.67Z"/>
    </g>
    <g>
        <path class="cls-2"
              d="M.86,60.52l1.28-27.46,.04-.16c.08-.33,.31-.49,.7-.49h6.67c.41,0,.58,.19,.51,.57l-1.72,12.48c-.01,.05,.02,.09,.1,.1,.08,.01,.13-.02,.15-.1l4.63-12.48c.12-.38,.39-.57,.8-.57h4.99c.41,0,.58,.19,.51,.57l-1.4,12.52c-.01,.06,.02,.09,.12,.1,.09,.01,.15-.02,.17-.1l4.31-12.52c.12-.38,.37-.57,.76-.57h6.51c.46,0,.6,.22,.41,.65l-12.08,27.46c-.17,.35-.45,.53-.83,.53h-5.65c-.41,0-.58-.19-.51-.57l1.56-13.13c.02-.08-.02-.12-.11-.12s-.15,.04-.17,.12l-4.67,13.13c-.12,.38-.39,.57-.8,.57H1.42c-.38,0-.57-.18-.56-.53Z"/>
        <path class="cls-2"
              d="M46.61,38.83c-.14,.11-.3,.16-.49,.16h-7.82c-.16,0-.27,.08-.31,.25l-.98,3.93c-.04,.16,.02,.25,.18,.25h4.05c.19,0,.33,.05,.41,.16,.08,.11,.1,.26,.05,.45l-1.34,5.36c-.05,.19-.14,.34-.28,.45-.14,.11-.3,.16-.49,.16h-4.05c-.16,0-.27,.08-.31,.25l-.99,3.97c-.04,.16,.02,.25,.18,.25h7.82c.19,0,.33,.05,.41,.16,.08,.11,.1,.26,.05,.45l-1.34,5.36c-.05,.19-.14,.34-.28,.45-.14,.11-.3,.16-.49,.16h-15.14c-.19,0-.33-.05-.41-.16-.08-.11-.1-.26-.05-.45l6.83-27.41c.05-.19,.14-.34,.28-.45,.14-.11,.3-.16,.49-.16h15.14c.19,0,.33,.05,.41,.16,.08,.11,.1,.26,.05,.45l-1.34,5.36c-.05,.19-.14,.34-.28,.45Z"/>
        <path class="cls-2"
              d="M58.94,58.97c-2.01,1.39-4.3,2.09-6.86,2.09h-8.63c-.19,0-.33-.05-.41-.16-.08-.11-.1-.26-.05-.45l6.83-27.41c.05-.19,.14-.34,.28-.45,.14-.11,.3-.16,.49-.16h7.41c2.97,0,5.13,.67,6.48,2,1.34,1.34,1.68,3.36,1.01,6.06-.63,2.51-1.87,4.38-3.73,5.61-.16,.11-.21,.2-.15,.29,1.61,1.53,2.06,3.74,1.33,6.63-.65,2.59-1.97,4.58-3.99,5.97Zm-4.4-5.18c.44-.45,.77-1.1,.98-1.94,.21-.85,.22-1.52,.03-2.03-.19-.5-.54-.76-1.06-.76h-.74c-.16,0-.27,.08-.31,.25l-1.22,4.91c-.04,.16,.02,.25,.18,.25h.7c.52,0,1-.23,1.44-.68Zm1.42-14.55l-1.02,4.09c-.04,.16,.02,.25,.18,.25h.2c1.23,0,2.03-.76,2.41-2.29,.38-1.53-.04-2.29-1.27-2.29h-.2c-.16,0-.27,.08-.31,.25Z"/>
    </g>
</svg>