<?xml version="1.0" encoding="UTF-8"?>
<svg width="80px" height="80px" viewBox="0 0 80 80" version="1.1" xmlns="http://www.w3.org/2000/svg"
>
    <title>编组</title>
    <g id="组件分类" stroke="none" stroke-width="1" fill="none" fill-rule="evenodd">
        <g id="空状态&amp;返回顶部" transform="translate(-100.000000, -242.000000)">
            <g id="编组-2" transform="translate(100.000000, 242.000000)">
                <rect id="矩形" x="0" y="0" width="80" height="80"></rect>
                <g id="暂无数据_画板-1" transform="translate(11.000000, 27.000000)">
                    <ellipse id="椭圆形" fill="#DCE0E6" fill-rule="nonzero" cx="29.536825" cy="32.7875" rx="27.9257255"
                             ry="10.2125"></ellipse>
                    <path d="M31.0642331,14.5895488 C31.0642331,22.6837579 31.0642331,30.7556996 31.0642331,38.8499086 C30.8177452,38.7719726 30.5936653,38.7051703 30.3583815,38.6383681 C28.7113942,38.1262174 27.064407,37.6252003 25.4062157,37.1130494 C23.6808006,36.5786312 21.9665894,36.0553467 20.2411742,35.5209285 C18.515759,34.9865103 16.8015478,34.4632258 15.0761325,33.9288076 C13.5523893,33.4611917 12.028646,32.9824421 10.4936987,32.5148261 C9.60858311,32.247617 8.72346753,31.9692742 7.82714794,31.7020651 C7.31176419,31.5461932 6.97564435,31.0785772 7.03166432,30.4773567 C7.0764803,30.0320082 7.04286831,29.5866598 7.05407231,29.1413112 C7.08768429,28.3285502 7.0764803,27.5046554 7.11009228,26.6918945 C7.13250027,26.0461391 7.11009228,25.38925 7.15490826,24.7434947 C7.19972423,24.0643383 7.16611225,23.3851818 7.19972423,22.7060253 C7.23333623,22.06027 7.21092823,21.4033809 7.24454022,20.7576256 C7.26694821,20.4124805 7.26694821,20.0673355 7.27815221,19.7110566 C7.27815221,19.5217835 7.30056019,19.5106498 7.50223209,19.5663184 C7.96159588,19.6999229 8.42095967,19.8335275 8.88032346,19.9782657 C10.4040667,20.4236142 11.9278101,20.8800964 13.4515533,21.3254449 C14.5159328,21.6371889 15.5803124,21.9600666 16.6446919,22.2718105 C18.0900072,22.6948916 19.5353225,23.1291064 20.9806378,23.5521875 C21.8657534,23.8193966 22.762073,24.0866057 23.6471886,24.3426811 C24.1849804,24.4985531 24.5883242,24.3538148 24.868424,23.8750651 C25.4734397,22.8396298 26.0784555,21.7930609 26.7058792,20.7687593 C27.7926667,19.0096327 28.8906581,17.2505062 30.1455055,15.6027167 C30.3583815,15.3243739 30.5936653,15.0460311 30.8177452,14.778822 C30.8737653,14.700886 30.9297852,14.62295 31.0642331,14.5895488 Z"
                          id="形状" fill="#EBEEF2" fill-rule="nonzero"></path>
                    <path d="M18.4565273,32.408606 C18.4350454,32.5193927 18.4146086,32.5984768 18.3926887,32.6462291 C18.373032,32.6944449 18.3461962,32.7301305 18.3101041,32.7530979 C18.1804386,32.8419392 18.0101512,32.8861473 17.7945642,32.885977 C17.5816333,32.8854234 17.3057861,32.8404866 16.9664847,32.7512952 C16.5771226,32.6482177 16.2870936,32.5366533 16.0972774,32.4151613 C15.9065102,32.2928295 15.8049618,32.1559859 15.7906057,31.9999779 L16.9525945,32.307596 C16.9604828,32.3386331 16.980299,32.3653646 17.0139564,32.3880256 C17.0464744,32.4093445 17.0943978,32.4283188 17.1588177,32.4460514 C17.2877799,32.4801921 17.384554,32.4873567 17.4491027,32.4650022 C17.5118857,32.4433563 17.5509682,32.3901511 17.5689797,32.3050875 C17.5724205,32.2873626 17.574918,32.2744088 17.5749993,32.263665 C17.5761792,32.2547047 17.5783942,32.2459279 17.5785391,32.2367841 C17.4730073,32.2575164 17.3560463,32.2625127 17.2247253,32.2529421 C17.0952566,32.2422334 16.9505973,32.2154262 16.7896408,32.1741273 C16.4744561,32.0906871 16.2327748,31.9697581 16.064292,31.8094049 C15.8995926,31.6497367 15.8345692,31.477918 15.8684492,31.292704 C15.9037514,31.1095853 16.0249944,30.987711 16.2366121,30.9262646 C16.4479312,30.8659152 16.7108105,30.8776559 17.027575,30.9601121 C17.1937633,31.0041078 17.3385054,31.0555434 17.4656144,31.1169663 C17.5906906,31.1756346 17.6986501,31.2446983 17.7919595,31.3256245 L17.8218656,31.2045837 L18.6468933,31.4229967 L18.4565273,32.408606 Z M16.8655215,31.7522938 C16.9374848,31.8152205 17.0392602,31.8642374 17.1765065,31.9017924 C17.3120703,31.9376808 17.4227047,31.9449413 17.5123494,31.9235312 C17.6001624,31.901003 17.6506692,31.8540789 17.6659346,31.7818129 C17.6800728,31.7084796 17.6512172,31.6409527 17.5784854,31.5755157 C17.5062991,31.5106302 17.4038095,31.4615147 17.2691764,31.4246514 C17.1368218,31.3896126 17.0263998,31.3825441 16.9345916,31.405055 C16.8451109,31.426418 16.7938151,31.4730879 16.7785118,31.5468818 C16.7650411,31.6185826 16.7929497,31.6865373 16.8655215,31.7522938 Z M13.3067533,31.3404271 L13.5508484,30.0738996 L14.4182369,30.303527 L14.3932748,30.4350587 C14.5184655,30.4122031 14.646178,30.4048062 14.7782367,30.4133056 C14.9085267,30.4214273 15.0447741,30.4448315 15.1903918,30.4821602 C15.4752271,30.5575658 15.672613,30.6585813 15.7862785,30.7884101 C15.8997719,30.916746 15.9375718,31.083755 15.897555,31.2892369 L15.7619853,31.9904109 L14.8951011,31.760917 L15.0104699,31.1657124 C15.0287495,31.0718995 15.0184837,31.0014687 14.9786344,30.9531501 C14.9393331,30.9056098 14.8634039,30.8666016 14.7468001,30.8347827 C14.6195342,30.801091 14.5162657,30.7944236 14.4334237,30.8142873 C14.3550505,30.8356507 14.3087087,30.8797874 14.2936573,30.9507531 L14.17405,31.5700302 L13.3067533,31.3404271 Z M11.1746301,29.5861851 C11.4345965,29.5310247 11.7814958,29.5612994 12.2186372,29.675352 C12.6539819,29.7906026 12.9775329,29.9380905 13.1920317,30.1193555 C13.4067492,30.2989144 13.4932556,30.4969107 13.4508923,30.7133057 C13.4102142,30.9275234 13.2594551,31.0619837 12.9989513,31.1181325 C12.7414697,31.1731365 12.3948505,31.1433884 11.9579405,31.0287637 C11.5242462,30.91395 11.1997182,30.7665654 10.9818604,30.5841397 C10.7675484,30.4048691 10.6816023,30.2079258 10.721461,29.990732 C10.7628965,29.7763982 10.9134339,29.6425578 11.1746301,29.5861851 Z M11.7177222,30.472678 C11.7896445,30.5450475 11.8926747,30.5991912 12.0298533,30.6364117 C12.164546,30.6720695 12.2785274,30.6761451 12.369593,30.6452505 C12.4606595,30.616075 12.5150065,30.5585428 12.531653,30.4699517 C12.5486815,30.3828186 12.5214121,30.3034084 12.4496823,30.2302757 C12.3795092,30.1581884 12.2768651,30.1042374 12.1397106,30.0667066 C12.00378,30.0307211 11.890803,30.0281779 11.7974906,30.0576183 C11.7080939,30.0873263 11.6561115,30.145394 11.6379037,30.2333457 C11.6209348,30.3192733 11.6468024,30.3984029 11.7177222,30.472678 Z M9.19963214,30.2531318 L9.43494333,29.0334467 L8.52941176,28.7937215 L8.60945108,28.38 L11.3947217,29.1173563 L11.3151866,29.5312113 L10.4057583,29.2904545 L10.170172,30.5100669 L9.19963214,30.2531318 Z M25.7632565,34.661913 L26.0313718,32.9827104 L26.8277463,33.1935379 L26.7440064,33.7147926 C26.8585223,33.6889301 26.9753671,33.6784299 27.0964805,33.6834437 C27.2155457,33.6884128 27.3407561,33.7083072 27.4744516,33.7422535 C27.7358601,33.8114573 27.9192397,33.9099408 28.0254451,34.0389255 C28.1318401,34.1660607 28.1678677,34.3348169 28.1357157,34.5446425 L28.0224551,35.26 L27.2254846,35.0490147 L27.3219664,34.4415276 C27.3374906,34.3473924 27.3262738,34.2761218 27.2889859,34.2263101 C27.2523554,34.1788888 27.1805379,34.141331 27.0734384,34.1116663 C26.9563042,34.0806569 26.8623473,34.0769069 26.7871593,34.0994301 C26.7147124,34.1226338 26.6728806,34.1686882 26.6605779,34.2410148 L26.5595393,34.8727162 L25.7632565,34.661913 Z M25.8234504,34.0860713 C25.7630253,34.281401 25.6173756,34.4010207 25.3864547,34.4481295 C25.1588914,34.4938203 24.8462941,34.4636705 24.4514214,34.3599484 C24.043813,34.2520405 23.7395846,34.1099846 23.5348743,33.9301349 C23.332826,33.7520754 23.2489731,33.5534699 23.2827162,33.3322146 C23.3176817,33.1139968 23.4550266,32.9743569 23.6974834,32.9115759 C23.9390482,32.8499608 24.2626919,32.8738075 24.6720369,32.9808634 C25.0497543,33.0808581 25.3367378,33.204598 25.5345769,33.3560772 C25.7310469,33.5052942 25.8339039,33.67668 25.8416415,33.8728663 L24.9874105,33.6467222 C24.9659402,33.5798839 24.9240886,33.5225315 24.8639188,33.4752111 C24.8045287,33.4289566 24.7277689,33.3933471 24.629141,33.3658799 C24.4878466,33.3284745 24.3735986,33.3267256 24.2821747,33.3599227 C24.1924635,33.392578 24.1402597,33.4561959 24.1246497,33.5524796 C24.109829,33.6449466 24.1374771,33.7287994 24.2073997,33.8062935 C24.2770602,33.8807781 24.3779677,33.9355812 24.513484,33.9729496 C24.6230996,34.0019686 24.7198295,34.0076288 24.8031973,33.9873615 C24.8855274,33.9666837 24.9407295,33.925164 24.9725661,33.8608132 L25.8234504,34.0860713 Z M23.2387661,33.5825662 C23.157237,33.7102952 23.0011181,33.7814133 22.768143,33.7984414 C22.5387913,33.8149361 22.2411853,33.7748234 21.8764879,33.6782755 C21.4715843,33.5710837 21.1685021,33.4293313 20.9667259,33.2502583 C20.7654111,33.072393 20.6818333,32.8738603 20.7169976,32.6529812 C20.7516366,32.4333652 20.889548,32.2928803 21.1295226,32.2304824 C21.3697537,32.1697808 21.6915177,32.1931299 22.0961407,32.2989357 C22.5258464,32.4126934 22.839615,32.5658691 23.0388446,32.7608683 C23.2384426,32.9544723 23.3172635,33.1822324 23.276647,33.445408 L23.2729751,33.4686353 L21.5495677,33.0123905 C21.5385927,33.0816309 21.5704432,33.1463773 21.644562,33.2066631 C21.7197129,33.2660461 21.8304053,33.3153882 21.9764218,33.3540437 C22.0731549,33.3796523 22.1532081,33.3925223 22.2216185,33.3918161 C22.2886565,33.3918322 22.3373137,33.3790666 22.3720653,33.3531209 L23.2387661,33.5825662 Z M22.5890881,33.0000421 C22.5894764,32.9259201 22.5545269,32.8587249 22.4815445,32.7986948 C22.4102324,32.7400566 22.3092545,32.6936934 22.1783614,32.6577298 C22.0383964,32.6206763 21.9217163,32.6090561 21.8287416,32.6245185 C21.7385634,32.6407213 21.6767483,32.6819378 21.6429737,32.7495751 L22.5890881,33.0000421 Z M19.3195963,32.956056 L19.5177969,31.7122982 L18.6858008,31.4920404 L18.752844,31.0696313 L21.3124652,31.7472505 L21.2447802,32.1694896 L20.4091165,31.9482609 L20.2112368,33.1921037 L19.3195963,32.956056 Z"
                          id="形状结合" fill="#B5BDC6"></path>
                    <path d="M9.00350064,26.3827599 L9.11029278,26.4161205 L9.21708492,26.4437504 L9.38320604,26.4911874 L9.38913893,26.7022157 C9.38913893,26.7487343 9.55526005,26.8426901 9.55526005,26.9764312 C9.56447311,27.058275 9.56447311,27.1382574 9.55526005,27.2148394 C9.54339425,27.2695994 9.4603337,27.2458809 9.40100473,27.2289391 C9.29604594,27.1207521 9.19872418,27.0053626 9.11029278,26.8842567 C9.06755476,26.7771379 9.02992801,26.669346 8.99756774,26.5613256 C8.94787576,26.4902204 8.90228034,26.4169685 8.86111111,26.3420996 C8.86111111,26.3072106 9.00350064,26.3827599 9.00350064,26.3827599 Z M11.0384843,22.3119964 C11.0800145,22.3238557 11.2342699,22.4260527 11.2342699,22.4376824 C11.2342699,22.4493121 11.2935988,22.5011429 11.3351291,22.5130021 C11.4081763,22.5279282 11.4815991,22.5488945 11.5546463,22.5756868 C11.6319458,22.6144298 11.7035004,22.6709299 11.7622977,22.7396502 C11.7919556,22.7681572 11.8147119,22.8030418 11.8275596,22.8396938 C11.7630704,22.8742181 11.6935327,22.9010952 11.6199082,22.9199535 C11.5902437,22.9114826 11.5546463,22.8722434 11.4893844,22.8826816 C11.3862805,22.8912381 11.2885785,22.9141489 11.1986725,22.9508524 L11.1961447,22.9995567 L11.1986725,23.0497046 L11.198151,23.2280552 C11.1964476,23.2648541 11.1964476,23.304922 11.3054646,23.3360525 C11.4300555,23.3716303 11.4419213,23.398278 11.4893844,23.3885721 C11.5368476,23.3788662 11.5843108,23.311012 11.6199082,23.3211771 C11.6701962,23.3251319 11.7197414,23.3256833 11.7682306,23.3228278 C11.8550301,23.3124478 11.9442432,23.3087773 12.0352109,23.3118434 C12.1828328,23.3081562 12.339613,23.342948 12.492044,23.4132211 C12.6477826,23.4933092 12.6763346,23.5860501 12.7128358,23.6170637 L12.7293599,23.6263592 C12.7708902,23.6556629 12.9014139,23.8324909 12.8717494,23.8996129 C12.874615,23.9851619 12.8625733,24.0663049 12.836152,24.1394856 C12.7692536,24.2247853 12.7097835,24.3166051 12.6581651,24.4142909 C12.6225677,24.4739039 12.5098427,24.6219743 12.4861111,24.6617163 C12.4623795,24.7014582 12.2903255,24.9139945 12.2903255,24.9488835 C12.235679,25.01656 12.1880578,25.0904743 12.147936,25.1698907 C12.1301373,25.2229565 12.0114794,25.2762954 12.0114794,25.3402586 C11.9853298,25.4122277 11.9674401,25.4889428 11.9580833,25.569234 C11.9462175,25.5774753 11.8453582,25.6068226 11.8453582,25.6068226 C11.7688665,25.612742 11.6953413,25.6268036 11.6258411,25.6488049 C11.5958763,25.6573007 11.5640294,25.6618623 11.5309147,25.6624019 C11.4953173,25.6522368 11.4300555,25.6103415 11.400391,25.6251299 C11.3707265,25.6399184 11.056283,25.7071273 11.0266185,25.7102861 C10.996954,25.7134448 10.9554237,25.7306598 10.9554237,25.8527713 C10.9554237,25.9748828 10.9435579,26.0761614 10.9554237,26.108624 C10.9672895,26.1410865 11.0503501,26.3625094 11.0503501,26.4264726 C11.069696,26.5461778 11.1035803,26.667205 11.1512093,26.7867192 C11.1897092,26.8628923 11.2177251,26.9414999 11.2342699,27.0197717 C11.2342699,27.0721053 11.228337,27.1983374 11.1927396,27.1881723 C11.1571422,27.1780073 11.0978132,27.108732 11.0800145,27.1559829 C11.0622159,27.2032339 11.056283,27.2073545 11.0147527,27.1896804 C10.9732224,27.1720063 10.8130342,26.9111146 10.7715039,26.8876257 C10.7368953,26.8680516 10.6693262,26.7542657 10.6477646,26.7168808 L10.6409802,26.7049828 L10.5223222,26.4733949 C10.5104564,26.4234878 10.7003091,26.5416648 10.7299736,26.4861725 C10.7596381,26.4306802 10.7418394,26.2569675 10.7299736,26.1721715 C10.7181078,26.0873754 10.6943763,25.8712647 10.6053828,25.8051481 C10.5163893,25.7390316 10.3384024,25.8568364 10.2850064,25.8764777 C10.2260211,25.9055317 10.1569687,25.9176619 10.0832879,25.911913 C10.0476905,25.9017479 9.99429442,25.9213893 9.94089835,25.8712526 C9.85398078,25.7890798 9.78105115,25.6928049 9.72731406,25.5892984 C9.66413599,25.4586859 9.60864064,25.3262867 9.56119294,25.1929713 C9.53746136,25.0524534 9.44253501,24.7694938 9.42473632,24.6655591 C9.40916246,24.5746162 9.32545299,24.2994934 9.30476897,24.1814924 L9.30014548,24.1415352 L9.30014548,23.8798677 C9.30924654,23.8397323 9.33212654,23.8075323 9.36540735,23.7880218 C9.4000681,23.7557397 9.42806736,23.7166915 9.4484679,23.6721843 C9.49423596,23.6403964 9.67512878,23.7240926 9.75203158,23.7561227 L9.78071013,23.7670584 L10.0476905,23.6921109 L10.2138116,23.6639551 L10.315622,23.6259222 L10.421463,23.595325 L10.6469131,23.5434072 C10.7132677,23.5228153 10.773253,23.4909515 10.8249,23.4488618 C10.8437593,23.4235421 10.8577617,23.3942114 10.8664303,23.3618689 C10.8782545,23.2570111 10.8782545,23.1478489 10.8664303,23.0362381 C10.8604974,22.999655 10.8545645,22.9281828 10.7715039,22.9277236 C10.6884434,22.9272644 10.5579196,22.9714001 10.5163893,22.9595408 C10.4650381,22.9412327 10.4134852,22.9265114 10.362134,22.9154921 C10.362134,22.9154921 10.2019458,22.8930086 10.2256774,22.8241925 C10.249409,22.7553764 10.3502682,22.7434736 10.4155301,22.7155909 C10.4925624,22.7024336 10.5678016,22.6851071 10.6409802,22.6636731 C10.6765776,22.644764 10.7299736,22.5727891 10.7596381,22.58126 C10.7887792,22.5722431 10.8209768,22.5696035 10.8545645,22.5734779 C10.8545645,22.5734779 10.9850882,22.5060828 10.9850882,22.4770087 C10.9850882,22.4479345 10.996954,22.3001372 11.0384843,22.3119964 Z M12.3852519,26.2843281 C12.3852519,26.2843281 12.5039098,26.271693 12.5157756,26.3216001 C12.6466162,26.4376499 12.7858871,26.5417695 12.9310784,26.6320822 C13.0141389,26.6848749 13.0141389,26.9814315 13.0141389,27.0105056 C13.0141389,27.0395798 12.9488771,27.1837592 12.9488771,27.1837592 C12.9253994,27.2069956 12.891698,27.2180161 12.8539507,27.2148006 C12.7093979,27.1587368 12.5664555,27.0906774 12.4267821,27.011412 C12.3971177,27.0029411 12.1657347,26.971757 12.0945399,26.9165379 C12.0233452,26.8613187 11.8868885,26.8863157 11.857224,26.8487706 C11.8275596,26.8112256 11.975882,26.7082092 11.975882,26.7082092 C12.0564848,26.7189963 12.1385279,26.7424243 12.2191308,26.7776706 C12.3275182,26.779475 12.415495,26.7269939 12.4564466,26.6361038 C12.492044,26.5590464 12.3852519,26.2843281 12.3852519,26.2843281 Z M10.4155301,24.8961537 C10.3706775,24.8949815 10.3284273,24.9026355 10.2909393,24.9187243 C10.2731406,24.9427159 10.1722813,25.0011374 10.1426168,25.0333703 C10.1129524,25.0656032 10.1129524,25.1877147 10.1129524,25.2226038 C10.1595715,25.2842328 10.2232113,25.3315131 10.2909393,25.3548368 C10.3719647,25.3545922 10.4496938,25.3435807 10.5223222,25.3220577 C10.5809856,25.2924681 10.6121514,25.2293674 10.6053828,25.1538867 C10.6077509,25.0850572 10.5956386,25.012349 10.5697854,24.9402024 C10.5519867,24.894416 10.4155301,24.8961537 10.4155301,24.8961537 Z M11.744499,24.5778701 C11.6658336,24.5774997 11.5901461,24.5871209 11.5190489,24.6065285 C11.4834515,24.6254376 11.2342699,24.6938381 11.2342699,24.6938381 C11.2342699,24.6938381 11.0681488,24.7219939 11.0444172,24.7966248 C11.0167385,24.8597407 10.9987836,24.9289147 10.9910211,25.0023409 C10.9910211,25.0546744 11.0088198,25.2109426 11.0740817,25.2295786 C11.1579189,25.2502103 11.2395467,25.2495187 11.3113975,25.2275678 C11.3835634,25.2192177 11.4530393,25.2040376 11.5190489,25.1821971 C11.5437693,25.1553363 11.5602496,25.0655513 11.5856567,25.0422517 L11.6021095,25.0372855 L11.7919622,25.0914992 C11.8371625,25.065753 11.8735497,25.0285929 11.8987543,24.9824385 L11.9487689,24.9018189 L12.0055465,24.826859 L11.9877478,24.8217765 C12.0015211,24.7634627 11.9838527,24.6934793 11.9402846,24.633778 C11.9046872,24.5887239 11.8156938,24.5982002 11.744499,24.5778701 Z M10.7023026,23.6700781 L10.6706447,23.6606658 L10.6160192,23.6588968 L10.5638525,23.6650596 L10.3799327,23.7404663 C10.3641117,23.7456399 10.3219222,23.7562056 10.2727011,23.7690707 L10.170613,23.7969504 C10.1039431,23.8163588 10.0476905,23.8361895 10.0476905,23.8491114 C10.0476905,23.8781856 9.93496545,23.921589 9.93496545,23.921589 C9.9205557,23.9904517 9.9205557,24.0654603 9.93496545,24.1425527 C9.97056283,24.2166809 10.0002273,24.3821524 10.0654892,24.4007884 C10.1320743,24.4328048 10.2006226,24.4523793 10.2672077,24.4583905 C10.3465334,24.4555448 10.4222766,24.4420094 10.4926578,24.4181023 C10.5163893,24.3958049 10.6053828,24.3107357 10.6053828,24.3107357 C10.6558099,24.3081868 10.7073451,24.3093043 10.7596381,24.3140806 C10.8071013,24.2997228 10.8165939,24.2559149 10.8184925,24.2181256 L10.8189671,23.9646878 L10.8011684,23.9886795 C10.8106219,23.9095915 10.8045879,23.8250732 10.7833697,23.7393739 C10.77981,23.7104462 10.7591635,23.693386 10.7316823,23.6810727 L10.7023026,23.6700781 Z M12.1282286,23.6385496 L12.0530096,23.6192973 C11.9658975,23.6188129 11.8778715,23.6147505 11.7891299,23.607123 L11.6555055,23.5930097 L11.3647936,23.6030322 L11.1749409,23.6302261 C11.1458005,23.6840361 11.1296616,23.746653 11.1274777,23.814377 C11.1274777,23.9074144 11.0918803,24.013546 11.1274777,24.0818594 C11.1522353,24.1482689 11.2195978,24.1979765 11.281733,24.1956861 C11.3679001,24.1772202 11.4571251,24.1657759 11.5487134,24.1614424 C11.6397699,24.1495758 11.7328554,24.1431578 11.8275596,24.1422167 C11.941854,24.1511866 12.0604745,24.191073 12.1716676,24.2579236 C12.1894663,24.3211545 12.3081242,24.2968898 12.3081242,24.2968898 C12.354469,24.2146902 12.3921884,24.1262292 12.4208492,24.0325227 C12.4208492,23.9569298 12.4208492,23.77667 12.3496545,23.7388953 C12.3018974,23.7097979 12.2528028,23.6850828 12.2031142,23.6650499 L12.1282286,23.6385496 Z M17.1849654,25.5732095 C17.2383615,25.5942719 17.268026,25.6608912 17.2976905,25.6984362 C17.327355,25.7359813 17.5290735,25.880806 17.5290735,25.9098801 C17.5528051,25.9166569 17.5053419,25.9903259 17.5053419,26.0775484 C17.4525919,26.1181946 17.3927759,26.1499685 17.327355,26.1720939 C17.2445051,26.156636 17.1610232,26.1327971 17.0781733,26.1009383 C17.0090447,26.0763462 16.9396505,26.0565303 16.8705219,26.041642 C16.7679353,26.0462078 16.6686556,26.0606715 16.5738771,26.0848593 C16.5111341,26.0983921 16.4609889,26.1352679 16.4314875,26.1895698 C16.4196217,26.2210705 16.461152,26.2561891 16.4730178,26.2886516 C16.4848836,26.3211141 16.4552191,26.3707916 16.4314875,26.4337929 C16.407756,26.4967942 16.3009638,26.6116698 16.3306283,26.6550297 C16.4033782,26.729457 16.4859529,26.7925155 16.5738771,26.8407878 C16.6525174,26.9251844 16.7259282,27.0142081 16.7933943,27.1069916 C16.8741985,27.2144636 16.9296348,27.3349355 16.9535825,27.4551059 C16.9687074,27.5577214 16.9687074,27.657685 16.9535825,27.7516624 C16.9476496,27.8139314 16.8705219,27.9198334 16.8705219,27.9721669 C16.8242414,28.0387743 16.7684795,28.0970221 16.7044008,28.1456936 C16.6688034,28.187862 16.4848836,28.2748984 16.4492862,28.3054372 C16.3441836,28.3487572 16.2280972,28.3724961 16.1051782,28.3758049 C16.0193978,28.3484728 15.9357337,28.3005821 15.8619294,28.2365655 C15.7788689,28.177958 15.7432715,28.2026819 15.7017412,28.1908226 C15.6602109,28.1789634 15.6483452,28.1116118 15.5830833,28.0929758 C15.5260981,28.0534641 15.4826142,27.9941666 15.4644254,27.9311659 L15.4644254,27.716017 C15.4644254,27.6753132 15.3991635,27.5810844 15.3872977,27.577696 L15.2745726,27.5455066 C15.2271095,27.5319531 15.1321831,27.6560319 15.0965857,27.6458668 C15.0284262,27.6653169 14.9569661,27.6779845 14.8830015,27.6837285 C14.82486,27.6928257 14.7626513,27.690796 14.6990817,27.6777276 C14.6575514,27.6658683 14.6990817,27.6312089 14.6990817,27.6312089 L14.9363975,27.4838273 C14.966062,27.4690388 15.1025186,27.368449 15.1440489,27.3279747 C15.1855792,27.2875005 15.3517003,27.1604925 15.3754319,27.1381951 C15.3991635,27.1158976 15.5474859,26.9663626 15.5771504,26.9457593 C15.6068149,26.9251561 15.772936,26.6702217 15.7966676,26.6479243 C15.8203992,26.6256268 15.9568558,26.3738513 15.9687216,26.3365358 C15.9805874,26.2992203 16.0992453,26.1819182 16.0992453,26.1295847 C16.0992453,26.0772512 16.0873795,26.0040849 16.0992453,26.0074732 L16.2238362,26.043051 C16.28732,26.0468027 16.3450896,26.0309449 16.3899573,25.9974507 C16.4136889,25.9751533 16.5976087,25.9346355 16.6450718,25.8958554 C16.6891118,25.8698364 16.7391903,25.8527242 16.7933943,25.8451726 C16.8596436,25.8315658 16.9198175,25.8054995 16.9713812,25.7680717 C17.0010456,25.7242091 16.9654483,25.7256737 16.9357838,25.7055731 C16.9061193,25.6854725 16.9001864,25.7361118 16.8289916,25.7099668 C16.7577969,25.6838218 16.7933943,25.6416534 16.7577969,25.6256735 C16.7221995,25.6096936 16.6806692,25.6676123 16.6510047,25.6591414 L16.5738771,25.6371171 C16.5467524,25.6468807 16.5209741,25.6589544 16.4967494,25.6732411 C16.4637446,25.6549037 16.428895,25.6449521 16.3958902,25.64444 C16.3602928,25.6517194 16.3780915,25.7556541 16.3246954,25.7520362 C16.2712993,25.7484182 16.2712993,25.6844551 16.2712993,25.6844551 C16.2219333,25.6665904 16.172343,25.6524295 16.1229769,25.6421005 C16.0589719,25.6598355 15.9992726,25.6856962 15.94499,25.7192015 L15.885661,25.7022597 C15.8559965,25.6821591 15.8026005,25.7366895 15.7551373,25.7231361 L15.6305465,25.6875583 C15.5447755,25.7189676 15.4634589,25.7579507 15.3872977,25.8041716 C15.2804289,25.8242295 15.1823292,25.8629311 15.0965857,25.9188611 C15.0609884,25.9552147 14.9423304,25.9794794 14.9363975,26.0068594 C14.9304646,26.0342394 14.8474041,26.0919285 14.8296054,26.1275498 C14.8236725,26.1394236 14.7887343,26.166274 14.7436882,26.1982066 L14.6457181,26.2659161 C14.5788856,26.3116641 14.5164803,26.3547202 14.5032961,26.3716303 C14.4029713,26.4352409 14.2805445,26.4662759 14.1473222,26.461869 C14.0471167,26.4200124 13.9526336,26.3527699 13.874409,26.26764 C13.8120025,26.1820739 13.7636408,26.089265 13.7320195,25.9943863 C13.7278444,25.9584251 13.7278444,25.9232961 13.7320195,25.8897193 C13.7379524,25.8565245 13.6904892,25.7906375 13.6726905,25.750666 C13.6548918,25.7106944 13.7379524,25.7227833 13.7498181,25.6622085 C13.7616839,25.6016336 13.874409,25.6570824 13.9100064,25.6439882 C13.9456037,25.6308939 13.9989998,25.5821784 14.0405301,25.5940376 C14.1033284,25.6228399 14.1675845,25.6411886 14.2303828,25.6482514 C14.3134434,25.6719699 14.3015776,25.6104332 14.3668394,25.6406989 C14.4321013,25.6709645 14.5863566,25.581272 14.7050145,25.6151556 C14.9063404,25.6174988 15.1044052,25.6080556 15.2983042,25.5868693 C15.3517003,25.5846724 15.7314057,25.5070253 15.8085334,25.5057903 C15.885661,25.5045553 16.3543599,25.5104692 16.4018231,25.5240227 L16.8705219,25.5241217 C16.9733242,25.5277645 17.078877,25.5442423 17.1849654,25.5732095 Z M16.0992453,27.0832175 C16.0009793,27.1587698 15.9135286,27.2467796 15.8381979,27.345934 C15.8026005,27.3822876 15.6127478,27.531593 15.5652846,27.5645582 C15.5178214,27.5975235 15.5356201,27.6491247 15.5652846,27.6575956 C15.5899785,27.674662 15.6177184,27.6825833 15.6424123,27.6796199 C15.6424123,27.6796199 15.6720767,27.6299425 15.7017412,27.6209689 C15.7314057,27.6119953 15.7314057,27.7224771 15.7314057,27.7224771 C15.7314057,27.7224771 15.7551373,27.9153285 15.772936,27.9204111 L15.885661,27.9526005 C15.9331242,27.966154 15.9865203,27.8941791 16.0517821,27.9128151 C16.1381237,27.9014121 16.2181929,27.875229 16.289098,27.8352114 C16.3578748,27.7535639 16.417433,27.6635539 16.4670849,27.566221 C16.4766639,27.4684454 16.4560411,27.361494 16.407756,27.2585374 C16.3721586,27.1960389 16.3068967,27.2006622 16.2475677,27.1779056 C16.1882388,27.1551489 16.1348427,27.0933826 16.0992453,27.0832175 Z M15.5514966,24.5138808 L15.6246136,24.5403417 C15.6898754,24.5706074 15.9627887,24.7997254 16.0161848,24.814973 C16.1322201,24.9237844 16.2361842,25.0455697 16.3246954,25.1763676 C16.3284728,25.2377438 16.2990517,25.2870138 16.2475677,25.305529 C16.2060375,25.3052994 16.0517821,25.354288 16.0102519,25.3424287 C15.9097895,25.3157445 15.8096456,25.2734066 15.713607,25.2170159 L15.5237543,25.0523203 C15.4582908,24.9749438 15.4004991,24.8920336 15.3517003,24.8054847 C15.3457674,24.7689015 15.2686398,24.6945436 15.2686398,24.6015063 C15.2686398,24.6015063 15.3517003,24.4507798 15.4050964,24.4776571 C15.4780194,24.490108 15.5516905,24.5111453 15.6246136,24.5403417 L15.5514966,24.5138808 Z M21.5634434,28.4574831 C21.5634434,28.4574831 21.3795235,28.4631118 21.3201946,28.3880217 C21.3103726,28.319667 21.3103726,28.2530625 21.3201946,28.1903173 C21.3201946,28.1903173 21.4151209,28.1127572 21.4151209,28.0546088 C21.4099905,27.9631536 21.3835864,27.8680244 21.3379933,27.7767318 C21.3031941,27.7255324 21.2655295,27.6759191 21.2252682,27.6282457 L21.2252682,27.337504 C21.2809587,27.3233936 21.3409694,27.318964 21.4032551,27.3243662 C21.4625841,27.341308 21.468517,27.3430022 21.4803828,27.4336131 C21.4922486,27.5242239 21.5159802,27.8508165 21.527846,27.9297977 C21.5397118,28.0087789 21.527846,28.3368361 21.527846,28.3833548 C21.5480906,28.4048271 21.5609432,28.4315916 21.5634434,28.4574831 Z M20.5667167,27.9228229 C20.6079453,27.9719107 20.6456719,28.0235517 20.6794417,28.0771238 C20.7150391,28.1396224 20.6794417,28.1585315 20.6794417,28.210865 C20.6794417,28.2631985 20.6794417,28.3620507 20.6023141,28.3283967 C20.5251864,28.2947427 20.5607838,28.1711666 20.548918,28.1096299 C20.5440554,28.0230237 20.5440554,27.9376063 20.548918,27.8537772 C20.5338133,27.770684 20.5338133,27.6898357 20.548918,27.615369 C20.5520152,27.5562051 20.5520152,27.4960418 20.548918,27.4351091 C20.548918,27.3885904 20.6023141,27.194504 20.6497772,27.2022426 C20.6888451,27.2420585 20.7110298,27.2940541 20.7091062,27.3412959 C20.714565,27.3951108 20.7285885,27.4501663 20.7506365,27.5043409 C20.7836254,27.6030297 20.7938102,27.7017658 20.780301,27.7919238 C20.7387707,27.8789168 20.5667167,27.9228229 20.5667167,27.9228229 Z M23.1000636,30.2802064 C22.9594908,30.2120725 22.8163368,30.1575531 22.6728951,30.1175215 C22.5542371,30.0836379 22.2991226,30.0107881 22.2219949,29.9887638 C22.0774456,29.9890589 21.9276691,29.9678193 21.7770276,29.9256634 C21.7414303,29.9154984 21.931283,29.6033776 21.9668803,29.5553943 C22.0042985,29.4621316 22.0320974,29.3630329 22.0499409,29.259297 C22.0499409,29.189519 22.0796054,28.9537668 22.0974041,28.8832565 C22.1152028,28.8127462 22.0974041,28.3308473 22.0974041,28.2668841 C22.0974041,28.2029209 22.0677396,27.7118188 22.0618067,27.6752356 C22.0558738,27.6386524 21.9134843,27.2549169 21.9134843,27.2083982 C21.9134843,27.1618795 21.7888934,27.0739682 21.7532961,27.0172845 C21.70383,26.9472221 21.6372314,26.8894484 21.5634434,26.8525888 C21.5118023,26.8371208 21.4608028,26.8345538 21.4151209,26.8451233 C21.3685895,26.8085292 21.318491,26.7785107 21.2667985,26.7562501 C21.2312011,26.7460851 21.1481406,26.844478 21.0947445,26.8350453 C21.0413484,26.8256125 20.9404892,26.7270334 20.9404892,26.7270334 C20.9404892,26.7270334 21.0532142,26.5208146 21.06508,26.489314 C21.124436,26.4065494 21.1940131,26.3328964 21.2727314,26.2694982 C21.3379933,26.2067266 21.4803828,26.0438677 21.4803828,26.0438677 C21.5001684,26.015607 21.5123069,25.9813995 21.5159802,25.9435509 C21.4869778,25.8460033 21.4406422,25.7498428 21.3795235,25.6603617 C21.3201946,25.5678271 21.0888116,25.5075689 21.0294826,25.4789974 C20.9701537,25.4504259 20.9582879,25.3772596 20.8870931,25.3394849 C20.8158983,25.3017102 20.608247,25.5157111 20.5726496,25.5520647 C20.5370522,25.5884183 20.3946627,25.5593876 20.3116021,25.5705581 C20.2285416,25.5817286 20.0268231,25.5997193 19.9615612,25.5985278 C19.8962993,25.5973363 19.8488362,25.7175241 19.8310375,25.7473305 C19.8975159,25.9674679 19.9829212,26.1865205 20.086152,26.4016637 C20.086152,26.4365527 20.1395481,26.4169113 20.2641389,26.4524891 C20.3887298,26.4880669 20.3649982,26.4812902 20.3649982,26.4812902 C20.3828222,26.5107043 20.3828222,26.5434633 20.3649982,26.5626979 C20.3649982,26.6150314 20.1810784,27.0916617 20.1573468,27.1779223 C20.1336152,27.264183 20.0802191,27.5687512 20.0624204,27.6392615 C20.0446217,27.7097718 20.0624204,28.0811889 20.0624204,28.1800411 C20.0667427,28.2573764 20.0459391,28.3268774 20.0030915,28.3782482 C19.9615612,28.4012779 20.0030915,28.558508 20.0030915,28.6050267 C20.0030915,28.6515454 20.1039507,28.6803464 20.1158165,28.7302535 C20.1276823,28.7801605 20.2700718,28.954562 20.2641389,29.0052013 C20.2696307,29.106291 20.3349023,29.21175 20.43026,29.2736021 C20.5347464,29.3218462 20.6423237,29.3272608 20.7269049,29.2885331 C20.7711622,29.2691113 20.7901475,29.2187103 20.7743681,29.1625305 C20.777474,29.0819432 20.7568989,28.9954053 20.7150391,28.9129954 C20.6794417,28.8679413 20.7150391,28.819958 20.7150391,28.819958 L20.8752273,28.8657009 L20.8752273,29.0052569 L20.8752273,29.3425173 L21.0354155,29.324297 C21.1006774,29.342933 21.183738,29.2736142 21.2312011,29.2639083 C21.2870203,29.2156119 21.3109204,29.1372567 21.296463,29.0499509 C21.3015688,28.9628554 21.3237116,28.8823695 21.3617249,28.8127342 C21.3617249,28.8127342 21.4566512,28.770063 21.5041144,28.7952461 C21.5515776,28.8204293 21.5041144,28.905728 21.5041144,28.9638763 C21.5041144,29.0220247 21.4151209,29.345502 21.409188,29.4019562 C21.4032551,29.4584104 21.3023959,29.5052021 21.2489998,29.5248435 C21.1956037,29.5444849 21.2489998,29.6702144 21.2489998,29.7109182 C21.2839194,29.7305971 21.3123851,29.7635637 21.3262633,29.8003984 C21.3401416,29.8372331 21.3379057,29.8738839 21.3201946,29.8998786 C21.2391675,29.8809101 21.1579729,29.8577244 21.0769458,29.8304172 L20.6794417,29.7169071 C20.5087543,29.6116104 20.3422398,29.4960607 20.1810784,29.3710767 C20.0310546,29.3007026 19.8825435,29.2233608 19.7361111,29.1393462 C19.682715,29.0775799 19.8310375,28.9454893 19.8310375,28.8698965 C19.8334465,28.7681614 19.7926678,28.6576507 19.7183124,28.5644099 C19.6115203,28.4350624 19.6530506,28.3480695 19.6530506,28.260847 C19.6498151,28.1227874 19.6110225,27.9776373 19.5403255,27.8390637 C19.4809965,27.7581587 19.3801373,27.5142088 19.3326741,27.4599515 C19.2852109,27.4056942 19.2318149,27.2101867 19.1250227,27.0226909 C19.0543888,26.8611164 19.0159276,26.6953822 19.0122977,26.5369445 C19.0122977,26.4439071 19.1428214,26.4114011 19.1902846,26.40751 C19.2377478,26.4036189 19.2555465,26.2924048 19.2555465,26.2458861 C19.2555465,26.1993675 19.1190898,26.0615491 19.1190898,26.0615491 C19.0567489,26.0079674 18.9989889,25.9485276 18.9470358,25.8844915 C18.8369984,25.7520671 18.7107115,25.6334891 18.5732633,25.5335351 C18.552069,25.597647 18.538155,25.6657554 18.531733,25.7368247 C18.5596543,25.8065849 18.5815069,25.8770785 18.5969949,25.9473502 C18.5969949,26.0054986 18.6741226,26.1263751 18.6681897,26.2177183 C18.6622568,26.3090615 18.7393844,26.4590122 18.7571831,26.5396875 C18.78725,26.6475295 18.811027,26.7553022 18.8283779,26.8623891 C18.8283779,26.9205374 18.8580424,27.0220457 18.8758411,27.1027211 C18.8977333,27.1755404 18.9365215,27.2466424 18.9885661,27.3093555 C18.9885661,27.3093555 19.0182306,27.5213456 19.0182306,27.5911236 C19.0182306,27.6609016 19.1606201,28.0388223 19.1784188,28.1194977 C19.1962175,28.2001731 19.338607,28.5141307 19.338607,28.572279 C19.2951992,28.669254 19.2069493,28.7305474 19.0953582,28.7412258 C19.0419622,28.7259782 18.8758411,28.7250598 18.8105792,28.7064238 C18.7453173,28.6877878 18.6622568,28.780366 18.6207265,28.8150254 C18.5791962,28.8496848 18.6207265,28.9836556 18.650391,29.0677193 C18.6965985,29.1807522 18.7733043,29.285963 18.8699082,29.3688122 C18.9757172,29.4191114 19.0844755,29.4501681 19.1902846,29.460298 C19.3780383,29.5045518 19.5661561,29.5582701 19.7539098,29.6212451 C19.88006,29.6405388 20.0080599,29.6790503 20.1336152,29.7354875 C20.2495031,29.8027097 20.3625578,29.8777601 20.4717903,29.9599821 C20.5819045,30.0302081 20.6995319,30.0777113 20.8158983,30.0989484 L21.1422077,30.1630542 L21.527846,30.2150276 C21.6671844,30.2186139 21.8108711,30.2420412 21.9550145,30.2846751 C22.155125,30.3183447 22.3533545,30.3380364 22.5483042,30.3436113 L22.850882,30.4009403 C22.9332432,30.4171632 23.0136116,30.4184515 23.0881979,30.4047443 L23.3611111,30.4245283 L23.1000636,30.2802064 Z"
                          id="形状结合" fill="#B5BDC6"></path>
                    <path d="M30.0670776,13.9771946 C29.9662416,14.0996655 29.8766097,14.2221364 29.7757738,14.3334735 C29.249186,14.9124266 28.7898222,15.5470481 28.3416624,16.1816697 C27.4565468,17.4397793 26.6274512,18.7312899 25.8319676,20.0562017 C25.2157479,21.0693696 24.6331401,22.0936711 24.0281244,23.1068389 C23.9048805,23.3072458 23.9048805,23.3183795 23.6920045,23.2515773 C22.9077249,23.0177693 22.1346493,22.7839613 21.3503696,22.5501533 C20.2411742,22.2272757 19.1319787,21.8932643 18.0227832,21.5703866 C17.2609115,21.3477124 16.487836,21.1139044 15.7259643,20.8912302 C14.5943608,20.5572188 13.4627574,20.2232074 12.3423578,19.889196 C11.3900183,19.6108533 10.4376787,19.3213767 9.48533918,19.0319002 C8.24169576,18.6644877 6.99805233,18.2970751 5.74320492,17.9296626 C4.6900294,17.6179187 3.6256499,17.3061747 2.57247439,16.9832971 C2.18033457,16.8608262 1.78819476,16.7494891 1.39605494,16.6270182 C1.21679102,16.5713497 1.21679102,16.560216 1.29521898,16.4154777 C1.93384668,15.2909728 2.58367838,14.1664677 3.28953006,13.0864977 C3.93936176,12.0844635 4.64521342,11.1269642 5.39588108,10.2028661 C5.84404087,9.65731415 6.33701664,9.15629708 6.8524004,8.66641373 C6.86360439,8.65528002 6.88601238,8.63301258 6.90842037,8.62187887 C7.14370426,8.42147205 7.14370426,8.42147205 7.43500813,8.49940804 C8.95875142,8.86682056 10.4936987,9.24536678 12.017442,9.6127793 C13.0145976,9.85772097 14.0117531,10.0915289 15.0089087,10.3253369 C16.4654279,10.6816157 17.9331512,11.0267608 19.3896706,11.3830397 C20.3196021,11.6057139 21.2495337,11.8283881 22.1794653,12.0510624 C23.6359846,12.4073412 25.1037079,12.7524862 26.5602272,13.1087651 C27.5573828,13.3537068 28.5545383,13.5875147 29.5516939,13.8324564 C29.7309578,13.8658575 29.9102216,13.8769913 30.0670776,13.9771946 Z"
                          id="路径" fill="#DCDFE2" fill-rule="nonzero"></path>
                    <path d="M49.5172126,20.0673355 C49.9989843,19.8446611 50.4919601,19.6219869 50.9737318,19.4104464 C51.1305877,19.3325104 51.1529958,19.3547778 51.1529958,19.5217835 C51.1529958,19.5551847 51.1529958,19.5997195 51.1529958,19.6331206 C51.1529958,23.3183795 51.1529958,26.9925047 51.1529958,30.6777636 C51.1529958,30.9449727 51.1193838,31.2010481 50.9625278,31.434856 C50.82808,31.6352629 50.648816,31.7688674 50.4359402,31.8468034 C48.9906248,32.403489 47.5341055,32.9490409 46.0887902,33.4945929 C44.8451468,33.9733425 43.6015033,34.4520921 42.3578599,34.9197081 C41.1926445,35.3650565 40.027429,35.8104051 38.8622136,36.2446199 C37.1592063,36.8903752 35.4561991,37.5472643 33.7419879,38.1930196 C33.4394801,38.3043567 33.1257682,38.4268276 32.8232603,38.5381647 C32.6552004,38.604967 32.6327924,38.5826995 32.6215884,38.3934264 C32.6215884,38.3377579 32.6215884,38.2709556 32.6215884,38.215287 C32.6215884,30.6554961 32.6215884,23.0957053 32.6215884,15.5359144 C32.6215884,15.4579784 32.6215884,15.3689087 32.6215884,15.2909728 C32.6327924,15.2909728 32.6439963,15.279839 32.6552004,15.279839 C32.7560364,15.4134435 32.8456683,15.5359144 32.9465042,15.669519 C33.6971719,16.7494891 34.3806156,17.8628604 35.0416512,18.9984991 C35.579443,19.9225971 48.7889529,20.3902131 49.5172126,20.0673355 Z"
                          id="路径" fill="#DCDFE2" fill-rule="nonzero"></path>
                    <g id="资源-1" transform="translate(38.666667, 19.057441)" fill="#B8BAC8" fill-rule="nonzero">
                        <path d="M5.24693715,0.31227372 C6.63276891,-0.218970968 7.96184062,-0.0680507986 8.94177166,0.731833512 C9.9217027,1.53171782 10.4722222,2.91504392 10.4722222,4.57749585 C10.4722222,8.03937277 8.13278241,11.7425793 5.24693715,12.8488391 C2.66170077,13.8398635 0.514964244,12.410604 0.0957790785,9.61326952 L0.0710615079,9.42969934 L0.0936836747,9.55932112 C0.39223278,11.1187722 1.3842937,12.1674538 2.78041178,12.2497901 L2.9498669,12.2550029 C4.89191906,12.2608505 6.99503139,10.4439394 7.97465175,7.94419098 L8.05814052,7.72188188 L7.0130835,8.12249399 L7.0130835,7.82161642 C7.0174607,7.75187489 7.05625782,7.68139793 7.10802183,7.64216491 L7.14894091,7.61909807 L7.28479833,7.56701849 C7.35438196,7.49813886 7.41241324,7.41062941 7.45200745,7.31487207 C7.47864491,7.25071715 7.49638475,7.18433047 7.5042603,7.11932955 L7.50974951,6.96051825 L7.5042603,6.80591542 L7.5042603,4.4991874 L7.48335916,4.50719964 L7.5042603,4.43650457 L7.5042603,4.32367548 L7.07578692,4.48792645 L7.13849034,4.31345094 L7.5042603,4.1732367 L7.50409524,4.00942915 L7.26389719,4.10240213 L7.33705118,3.9239205 L7.5042603,3.85982256 L7.5042603,3.68431065 L7.35795232,3.74039635 L7.42065574,3.56592083 L7.5042603,3.53387187 L7.5042603,3.39596965 L7.48335916,3.40398189 L7.49380973,3.37490264 L7.5042603,3.37089652 L7.5042603,3.33328682 L8.05814052,3.1209624 C7.43437479,1.72715001 6.10543119,1.1724459 4.62865081,1.6543538 L4.4576287,1.71457014 L4.28548469,1.78405461 C2.42527373,2.48051139 0.802758722,4.53072774 0.224391399,6.80753933 L0.175035714,7.01147633 L0.165352126,7.06245134 C0.0714057821,7.56877039 0.0216520708,8.07875989 0.0216520708,8.58361694 C0.0216520708,8.79998425 0.0307905075,9.01028799 0.0486296286,9.21417085 L0.0688174603,9.4153366 L0.0612051638,9.36976446 C-0.0164284466,8.85789768 -0.0218608408,8.29559417 0.0543928318,7.69778224 C0.082987959,7.47360276 0.122336316,7.25018332 0.171707004,7.02854547 L0.175035714,7.01147633 L0.208304304,6.84570785 C0.801434797,4.03163107 2.74168063,1.37052337 5.0672995,0.384770733 L5.24693715,0.31227372 Z M4.26458355,4.60025749 L4.26458355,4.61279406 L5.03792574,4.31634109 L5.05882688,4.33340198 L4.26458355,4.63786719 L4.26458355,4.65040375 L4.36908925,4.61034254 L4.36908925,4.73570819 L5.11107973,4.4512736 L5.17378316,4.57767565 L4.36908925,4.88614698 L4.36908925,5.06165889 L5.24693715,4.72514472 L5.30964057,4.85154678 L4.27939881,5.24558414 L4.28463492,5.40744775 L5.39324513,4.98247316 L5.45594855,5.10887522 L4.28912302,5.55616606 L4.29510714,5.72938402 L5.52910254,5.25634428 L5.59180596,5.38274634 L4.32728697,5.86748699 L4.29585516,5.81685324 L4.29593526,8.0357946 C4.28611791,8.11992 4.28284546,8.20239484 4.28611791,8.28207464 L4.29593526,8.39935499 C4.31646751,8.47425519 4.35636463,8.53292776 4.41089153,8.56840927 C4.4968584,8.61098135 4.59767424,8.61984647 4.7035075,8.5941401 C4.76446916,8.5812182 4.77462943,8.58777049 4.77632281,8.64835319 L4.77666149,8.99234047 L3.0209657,9.66536882 L3.0209657,9.37702781 C3.0209657,9.37702781 3.02864367,9.25434755 3.10981078,9.18902238 L3.15682312,9.16197289 L3.38673566,9.03622853 C3.45354707,8.96824427 3.50817196,8.88177602 3.54349421,8.78808823 C3.55197823,8.73098753 3.55197823,8.67570907 3.54349421,8.62511288 L3.54888729,8.46007015 L3.54349421,8.29916218 L3.54349421,5.79184912 C3.5521753,5.67205568 3.52174572,5.56791571 3.45895929,5.50254298 C3.40873014,5.45024479 3.34111685,5.42621881 3.26634106,5.43287388 L3.20907597,5.44365551 L3.20944337,5.17270527 C3.21164779,5.1430653 3.22707871,5.034311 3.33509515,4.96410906 L3.39718623,4.93276554 L4.26458355,4.60025749 Z M6.08298276,8.26591716 L5.98892763,8.52763043 L5.72766337,8.62778345 L5.63360824,8.43818037 L6.08298276,8.26591716 Z M6.21884017,7.88788689 L6.15613675,8.0623624 L5.56045425,8.2907113 L5.49775083,8.16430924 L6.21884017,7.88788689 Z M6.36514815,7.51838706 L6.30244473,7.69286257 L5.42459684,8.02937674 L5.35144285,7.9069808 L6.36514815,7.51838706 Z M6.50100556,7.14035678 L6.43830214,7.3148323 L5.27828886,7.75951174 L5.21558544,7.63310968 L6.50100556,7.14035678 Z M6.64731355,6.75832039 L6.57415956,6.93680202 L5.14243144,7.48564061 L5.07972802,7.35923855 L6.64731355,6.75832039 Z M6.21884017,6.60915722 L6.25019188,6.65982168 L6.28154359,6.58512049 L6.78317096,6.39282668 L6.72046754,6.56730219 L5.00657403,7.22430605 L4.94387061,7.09790399 L6.21884017,6.60915722 Z M6.08298276,6.3352861 L6.14568618,6.46168815 L4.87071662,6.95043493 L4.8080132,6.82403287 L6.08298276,6.3352861 Z M6.91902837,6.01479641 L6.85632495,6.18927192 L6.35469758,6.38156573 L6.42785157,6.2030841 L6.91902837,6.01479641 Z M5.94712535,6.06141497 L6.00982877,6.18781703 L4.73485921,6.6765638 L4.67215579,6.55016175 L5.94712535,6.06141497 Z M7.06533635,5.63276001 L6.99218236,5.81124165 L6.50100556,5.99952934 L6.56370899,5.82505383 L7.06533635,5.63276001 Z M5.81126793,5.78754385 L5.87397136,5.9139459 L4.5990018,6.40269268 L4.53629838,6.27629062 L5.81126793,5.78754385 Z M7.20119376,5.25472974 L7.13849034,5.42920525 L6.64731355,5.61749294 L6.71001697,5.44301743 L7.20119376,5.25472974 Z M5.66495995,5.53021541 L5.72766337,5.65661747 L4.46314439,6.14135812 L4.40044096,6.01495606 L5.66495995,5.53021541 Z M7.33705118,4.88923603 L7.27434776,5.06371154 L6.78317096,5.25199924 L6.85632495,5.0735176 L7.33705118,4.88923603 Z M7.48335916,4.50719964 L7.41020517,4.68568127 L6.92947894,4.86996284 L6.99218236,4.69548733 L7.48335916,4.50719964 Z"
                              id="形状结合"></path>
                    </g>
                    <path d="M32.7784443,13.5986484 C33.1705841,13.4427764 33.5627239,13.2869044 33.9548638,13.1421662 C35.1648952,12.6745502 36.3861307,12.2180681 37.5961621,11.7504521 C39.0414774,11.1937664 40.4755887,10.6482146 41.9209041,10.0915289 C43.7247472,9.40123876 45.5285904,8.71094858 47.3324336,8.00952468 C48.3856091,7.60871102 49.4387846,7.20789737 50.4919601,6.80708372 C50.66002,6.74028144 50.66002,6.74028144 50.77206,6.89615342 C52.3070073,8.85568684 53.8195465,10.826354 55.2424538,12.8638233 C55.7690416,13.6209159 56.2844254,14.3780083 56.6989732,15.1907693 C56.7213811,15.2353042 56.7437892,15.2687053 56.7661972,15.3132402 C56.8334212,15.4691122 56.8446251,15.4691122 56.6765652,15.5470481 C56.0715495,15.8253909 55.4553298,16.1037337 54.850314,16.3820766 C54.1668704,16.6938206 53.4834267,17.0055644 52.788779,17.3173084 C51.5787476,17.873994 50.3687162,18.419546 49.1586847,18.9762316 C48.3295891,19.3547778 47.5004935,19.733324 46.6713979,20.1118703 C45.4389584,20.668556 44.206519,21.2363753 42.9740795,21.7930609 C42.13378,22.1827409 41.2822764,22.5612871 40.4419768,22.9509671 C39.982613,23.1625076 39.5120452,23.374048 39.0526814,23.5855886 C38.8734175,23.6635246 38.8734175,23.6635246 38.7725815,23.4853852 C38.5709097,23.1068389 38.3692377,22.7171591 38.1675659,22.3386128 C37.1928183,20.4904165 36.1844587,18.653354 35.0864673,16.8719599 C34.4814515,15.8810595 33.8316199,14.9124266 33.1033601,14.0105958 C32.9913202,13.8769913 32.8568723,13.7656541 32.7784443,13.5986484 Z"
                          id="路径" fill="#EBEEF2" fill-rule="nonzero"></path>
                    <path d="M48.6881169,6.25039808 C48.408017,6.40627006 48.1503252,6.47307234 47.8926333,6.57327575 C45.8983222,7.34150193 43.8928071,8.10972809 41.887292,8.87795427 C40.0722449,9.56824445 38.2684018,10.2585346 36.4533547,10.9488248 C35.0640593,11.483243 33.6747639,12.0176612 32.2854686,12.5520795 C31.9045327,12.6968177 31.5123929,12.8415559 31.1314571,12.9862942 C31.0082131,13.0419628 30.8849692,13.0308291 30.7505213,12.9974279 C29.6413258,12.7302188 28.5321304,12.4630097 27.4229348,12.1958006 C27.210059,12.1401321 27.210059,12.1401321 27.210059,11.9285915 C27.210059,11.4721093 27.1876509,11.0044933 27.221263,10.5480112 C27.2772829,9.55711074 27.221263,8.56621031 27.2660789,7.57530989 C27.3108949,6.58440946 27.2660789,5.59350905 27.3108949,4.60260862 C27.3557108,3.6117082 27.3333029,2.62080777 27.3557108,1.62990736 C27.3557108,1.41836681 27.3781189,1.4072331 27.5797907,1.46290167 C29.193166,1.83031418 30.8065413,2.1977267 32.4199165,2.56513921 C33.5627239,2.82121461 34.7055314,3.07728999 35.837135,3.33336539 C37.607366,3.73417904 39.3775972,4.12385898 41.1478284,4.52467263 C42.6043478,4.8475503 44.0496631,5.18156167 45.5061824,5.51557305 C46.5257459,5.74938103 47.5453094,5.97205527 48.576077,6.20586324 C48.609689,6.21699695 48.6320969,6.22813066 48.6881169,6.25039808 Z"
                          id="路径" fill="#DCDFE2" fill-rule="nonzero"></path>
                    <path d="M5.94487682,27.5714578 C5.94487682,27.5157892 5.95608081,27.4712543 5.95608081,27.4155858 C5.9784888,26.5026213 5.9784888,25.6007906 6.0121008,24.6878262 C6.03450878,23.997536 6.02330479,23.3072458 6.05691677,22.6169556 C6.09052876,21.9712003 6.06812077,21.3254449 6.10173275,20.6908233 C6.12414074,20.2566086 6.13534473,19.81126 6.13534473,19.3770453 C6.13534473,19.154371 6.13534473,19.154371 5.93367282,19.0987024 C4.6900294,18.7312899 3.45758998,18.3638775 2.21394655,17.9964649 C1.7097668,17.8517266 1.20558703,17.6958546 0.70140726,17.5511164 C0.510939349,17.4954478 0.331675432,17.4063782 0.20843149,17.2393724 C-0.0268524005,16.9387622 -0.0716683797,16.6047508 0.118799531,16.2596057 C0.454919375,15.6583853 0.791039219,15.0571648 1.13836306,14.4559442 C1.94505068,13.0642302 2.84137026,11.7281847 3.79370982,10.436674 C4.4883575,9.50144217 5.26143314,8.63301258 6.11293674,7.84251899 C6.40424061,7.57530989 6.72915646,7.33036821 7.08768429,7.1410951 C7.23333623,7.06315911 7.36778416,6.98522312 7.50223209,6.90728713 C7.88316792,6.67347917 8.27530774,6.48420605 8.68985554,6.32833408 C11.5132622,5.30403252 14.3366689,4.27973096 17.1712796,3.25542939 C19.4793025,2.42040095 21.7873255,1.57423879 24.1065524,0.739210345 C24.7675881,0.50540238 25.4286238,0.260460703 26.0784555,0.0266527376 C26.1568834,-0.00674840026 26.2353114,-0.00674840026 26.3249433,0.015519025 C27.4901588,0.282728128 28.6553742,0.538803518 29.8205897,0.806012621 C31.7812888,1.25136112 33.7419879,1.68557592 35.691483,2.13092443 C38.1339538,2.68761005 40.5876287,3.24429568 43.0300995,3.80098131 C44.6994948,4.17952754 46.36889,4.55807377 48.0382853,4.92548629 C48.9009929,5.12589311 49.7749044,5.31516623 50.637612,5.51557305 C50.693632,5.52670677 50.760856,5.53784048 50.8168759,5.53784048 C51.0409558,5.57124162 51.2314238,5.64917761 51.3770757,5.84958443 C52.0381114,6.7068803 52.7103511,7.56417618 53.3713867,8.42147205 C54.5814182,10.013593 55.7802456,11.6057139 56.8670331,13.2757708 C57.214357,13.8213226 57.5616808,14.3668746 57.8305767,14.9458277 C57.9090047,15.1239671 57.9995837,15.3021064 57.9995837,15.5025133 C58.0098406,15.9144606 57.8305767,16.2150709 57.4608449,16.404344 C57.102317,16.5824833 56.7437892,16.7383553 56.3852613,16.9053611 C55.4889418,17.3173084 54.6038262,17.718122 53.7075066,18.1300695 C53.2257349,18.3527437 52.743963,18.575418 52.2509873,18.7869585 C52.1277433,18.8426271 52.0829274,18.9094293 52.0829274,19.0430339 C52.0829274,21.5481193 52.0829274,24.0532045 52.0829274,26.5694236 C52.0829274,26.6139585 52.0941314,26.6584933 52.0941314,26.7030282 C52.0941314,26.7920978 52.0829274,26.8811676 52.0829274,26.9702373 C52.0829274,28.261748 52.0941314,29.5643923 52.0717234,30.8559029 C52.0605193,31.7354663 51.6347676,32.3812216 50.8616919,32.793169 C50.682428,32.8822387 50.503164,32.9601747 50.3239002,33.0269769 C49.2371127,33.450058 48.1391212,33.8620054 47.0523337,34.2850865 C45.7862823,34.7749698 44.5314349,35.2648532 43.2653834,35.7436028 C41.8536801,36.2891547 40.4307728,36.8235729 39.0078654,37.3691248 C37.5961621,37.9146768 36.1844587,38.449095 34.7727554,38.9946469 C34.4030236,39.1393852 34.0220877,39.2507223 33.6747639,39.4399954 C33.3274401,39.529065 33.0137282,39.684937 32.6776084,39.8074079 C32.3078765,39.9410125 31.9381447,40.0857507 31.5684129,40.2193552 C31.478781,40.2527564 31.4003529,40.2638901 31.299517,40.230489 C30.5488494,39.9855473 29.7981817,39.762873 29.0475141,39.5513325 C28.8794541,39.5067977 28.7338022,39.4065943 28.5545383,39.3843268 C28.4761104,39.3175245 28.3752744,39.3063908 28.2856424,39.2841234 C27.5685867,39.0614492 26.8515311,38.8387749 26.1344755,38.6161007 C25.5294597,38.4268276 24.935648,38.2375545 24.3306322,38.0482814 C22.9189289,37.6029328 21.4960216,37.168718 20.0843183,36.7345032 C19.3112426,36.5006952 18.549371,36.2557536 17.7762953,36.0219456 C16.409408,35.5988645 15.0313166,35.1646498 13.6644292,34.730435 C12.3423578,34.3184876 11.0090825,33.9065402 9.68701108,33.4945929 C8.9923634,33.2719186 8.29771573,33.0492443 7.60306805,32.8377038 C7.27815221,32.7375004 6.96444035,32.6261632 6.70674847,32.4146227 C6.22497669,32.0249428 5.94487682,31.5350594 5.86644886,30.9115716 C5.84404087,30.6888973 5.87765285,30.4773567 5.87765285,30.2658162 C5.87765285,29.7982003 5.87765285,29.341718 5.87765285,28.8741021 C5.87765285,28.7404976 5.86644886,28.6180267 5.88885685,28.4844222 C5.9784888,28.183812 5.94487682,27.872068 5.94487682,27.5714578 Z M37.2488383,23.0734378 C37.2488383,23.0511704 37.2488383,23.0289029 37.2376343,23.0066356 C37.1143903,22.7616939 36.9911463,22.5167522 36.8566985,22.2718105 C36.8230864,22.216142 36.8006785,22.1270722 36.6998425,22.1270722 C36.7110465,22.0157351 36.6662305,21.9266655 36.6102106,21.826462 C36.0948268,20.8800964 35.579443,19.9337309 35.0304473,19.0096327 C34.3694116,17.873994 33.6859679,16.7606228 32.9353002,15.6806526 C32.8456683,15.5470481 32.7448324,15.4245773 32.6439963,15.2909728 C32.6327924,15.2909728 32.6215884,15.3021064 32.6103844,15.3021064 C32.6103844,15.3800424 32.6103844,15.4691122 32.6103844,15.5470481 C32.6103844,23.1068389 32.6103844,30.6666298 32.6103844,38.2264207 C32.6103844,38.2820892 32.6103844,38.3488916 32.6103844,38.4045601 C32.6103844,38.5938332 32.6327924,38.604967 32.8120564,38.5492983 C33.1145642,38.4379612 33.4282761,38.3154905 33.7307838,38.2041532 C35.4337911,37.5583979 37.1367983,36.9015089 38.8510095,36.2557536 C40.0162249,35.8104051 41.1814404,35.3761903 42.3466558,34.9308418 C43.5902993,34.4520921 44.8339427,33.9733425 46.0775861,33.5057265 C47.5229015,32.9490409 48.9794208,32.403489 50.4247361,31.8579371 C50.637612,31.7800011 50.8168759,31.6352629 50.9513239,31.4459898 C51.1081798,31.2121818 51.1417918,30.9561063 51.1417918,30.6888973 C51.1417918,27.0036384 51.1417918,23.3295133 51.1417918,19.6442544 C51.1417918,19.6108533 51.1417918,19.5663184 51.1417918,19.5329173 C51.1305877,19.3547778 51.1193838,19.3436442 50.9625278,19.4215802 C50.4807561,19.6442544 49.9877804,19.8557949 49.5060086,20.0784691 C48.7777489,20.4124805 48.0494892,20.7353582 47.3212295,21.0693696 C47.2540056,21.1027707 47.1867817,21.1139044 47.1531696,21.1807067 C47.1083537,21.1918404 47.0635377,21.1918404 47.0187218,21.2141078 C46.1784221,21.592654 45.3381225,21.9600666 44.5090269,22.372014 C44.4754149,22.3831477 44.453007,22.3831477 44.4193949,22.3942814 C43.4558514,22.8284962 42.5035118,23.2738447 41.5399683,23.7080595 C41.0357885,23.9418674 40.5316087,24.153408 40.027429,24.3983496 C39.8033491,24.5096867 39.5568611,24.5653553 39.3663933,24.7323611 C39.3551893,24.7323611 39.3551893,24.7323611 39.3439853,24.7323611 C38.9966614,24.8882331 38.6493376,24.9327678 38.2796058,24.7768958 C38.1003419,24.6432913 37.9658939,24.4874193 37.865058,24.2870125 C37.78663,24.1311405 37.7194061,23.9752686 37.6297741,23.8193966 C37.5177341,23.5633212 37.4168982,23.2961121 37.2488383,23.0734378 Z M31.0642331,14.5895488 C30.9297852,14.62295 30.8849692,14.700886 30.8289492,14.7676882 C30.6048693,15.0460311 30.3695854,15.3132402 30.1567095,15.591583 C28.9018621,17.2393724 27.8038706,18.9984991 26.7170831,20.7576256 C26.0896594,21.7819271 25.4846437,22.8284962 24.8796281,23.8639314 C24.5995281,24.3426811 24.1961844,24.4985531 23.6583926,24.3315474 C22.7732769,24.0643383 21.8769574,23.7971291 20.9918419,23.5410538 C19.5465265,23.1179727 18.1012111,22.6837579 16.6558959,22.2606769 C15.5915163,21.9489329 14.5271368,21.6260553 13.4627574,21.3143113 C11.939014,20.8578291 10.4152707,20.4124805 8.89152745,19.967132 C8.43216366,19.8335275 7.97279988,19.6887893 7.51343609,19.5551847 C7.32296818,19.4995161 7.30056019,19.5106498 7.2893562,19.6999229 C7.2893562,20.045068 7.27815221,20.3902131 7.25574422,20.7464919 C7.22213222,21.3922473 7.24454022,22.0491363 7.21092823,22.6948916 C7.17731624,23.374048 7.19972423,24.0532045 7.16611225,24.7323611 C7.13250027,25.3781164 7.15490826,26.0350054 7.12129627,26.6807607 C7.08768429,27.4935218 7.09888828,28.3174165 7.0652763,29.1301775 C7.05407231,29.575526 7.0764803,30.0208745 7.04286831,30.466223 C6.98684834,31.0674435 7.32296818,31.5239258 7.83835194,31.6909314 C8.72346753,31.9581405 9.60858311,32.2364834 10.5049027,32.5036925 C12.028646,32.9713083 13.5523893,33.4389243 15.0873365,33.9176739 C16.8127518,34.4520921 18.526963,34.9753767 20.2523782,35.5097948 C21.9777933,36.044213 23.6920045,36.5674976 25.4174197,37.1019157 C27.064407,37.6140665 28.7113942,38.1150836 30.3695854,38.6272343 C30.6048693,38.6940367 30.8289492,38.7608389 31.0754371,38.8387749 C31.0642331,30.7556996 31.0642331,22.6837579 31.0642331,14.5895488 Z M30.0670776,13.9771946 C29.8990177,13.8658575 29.7197538,13.8658575 29.5516939,13.8213226 C28.5545383,13.576381 27.5573828,13.342573 26.5602272,13.0976313 C25.1037079,12.7413526 23.6359846,12.3962075 22.1794653,12.0399286 C21.2495337,11.8172544 20.3196021,11.5945801 19.3896706,11.3719059 C17.9331512,11.0156271 16.4654279,10.670482 15.0089087,10.3142032 C14.0117531,10.0692615 13.0145976,9.83545355 12.017442,9.60164559 C10.4936987,9.23423307 8.95875142,8.86682056 7.43500813,8.48827433 C7.14370426,8.42147205 7.14370426,8.42147205 6.90842037,8.61074516 C6.88601238,8.62187887 6.87480839,8.6441463 6.8524004,8.65528002 C6.33701664,9.14516336 5.84404087,9.64618043 5.39588108,10.1917324 C4.64521342,11.1158305 3.93936176,12.0733298 3.28953006,13.0753639 C2.58367838,14.1664677 1.93384668,15.279839 1.29521898,16.404344 C1.21679102,16.5490822 1.22799502,16.560216 1.39605494,16.6158846 C1.78819476,16.7383553 2.18033457,16.8496925 2.57247439,16.9721633 C3.6256499,17.2839073 4.6900294,17.6067849 5.74320492,17.9185289 C6.98684834,18.2859415 8.23049176,18.653354 9.48533918,19.0207664 C10.4376787,19.2991093 11.3900183,19.5885858 12.3423578,19.8780624 C13.4739613,20.2120737 14.6055648,20.5460851 15.7259643,20.8800964 C16.487836,21.1027707 17.2609115,21.3365787 18.0227832,21.5592529 C19.1319787,21.8821306 20.2411742,22.216142 21.3503696,22.5390196 C22.1346493,22.7728276 22.9077249,23.0066356 23.6920045,23.2404435 C23.9048805,23.3072458 23.9048805,23.2961121 24.0281244,23.0957053 C24.6219361,22.0714037 25.2157479,21.0471022 25.8319676,20.045068 C26.6274512,18.7312899 27.4565468,17.4286455 28.3416624,16.170536 C28.7898222,15.5359144 29.249186,14.9012928 29.7757738,14.3223397 C29.8766097,14.2221364 29.9662416,14.1107992 30.0670776,13.9771946 Z M32.7784443,13.5986484 C32.8568723,13.7767878 33.0025242,13.8769913 33.1145642,14.0105958 C33.8540278,14.9124266 34.4926555,15.8810595 35.0976712,16.8719599 C36.1956627,18.653354 37.2040223,20.4904165 38.1787698,22.3386128 C38.3804417,22.7171591 38.5821136,23.1068389 38.7837856,23.4853852 C38.8734175,23.6635246 38.8846215,23.6635246 39.0638854,23.5855886 C39.5232492,23.374048 39.993817,23.1625076 40.4531808,22.9509671 C41.2934804,22.5612871 42.144984,22.1827409 42.9852836,21.7930609 C44.2177231,21.2363753 45.4501624,20.668556 46.6826018,20.1118703 C47.5116975,19.733324 48.3407931,19.3547778 49.1698887,18.9762316 C50.3799202,18.419546 51.5899515,17.873994 52.799983,17.3173084 C53.4834267,17.0055644 54.1668704,16.6938206 54.8615181,16.3820766 C55.4665337,16.1037337 56.0827535,15.8253909 56.6877692,15.5470481 C56.8446251,15.4691122 56.8446251,15.4691122 56.7774012,15.3132402 C56.7549932,15.2687053 56.7325852,15.2353042 56.7101772,15.1907693 C56.2956294,14.3668746 55.7690416,13.6097821 55.2536579,12.8638233 C53.8307505,10.826354 52.3182113,8.84455313 50.783264,6.89615342 C50.6712241,6.75141515 50.6712241,6.75141515 50.503164,6.80708372 C49.4499886,7.20789737 48.396813,7.60871102 47.3436376,8.00952468 C45.5397944,8.69981487 43.7359512,9.39010505 41.9321081,10.0915289 C40.4867927,10.6482146 39.0526814,11.1937664 37.607366,11.7504521 C36.3973347,12.2180681 35.1760992,12.6745502 33.9660678,13.1421662 C33.5627239,13.2869044 33.1705841,13.4427764 32.7784443,13.5986484 Z M48.6881169,6.25039808 C48.6320969,6.22813066 48.609689,6.21699695 48.587281,6.21699695 C47.5677175,5.98318899 46.548154,5.76051474 45.5173864,5.52670677 C44.060867,5.19269539 42.6155518,4.86981772 41.1590324,4.53580635 C39.3888012,4.13499269 37.6185701,3.73417904 35.8483389,3.3444991 C34.7055314,3.08842371 33.5627239,2.83234832 32.4311205,2.57627292 C30.8177452,2.1977267 29.20437,1.83031418 27.5909947,1.46290167 C27.3781189,1.41836681 27.3669149,1.42950052 27.3669149,1.62990736 C27.3445068,2.62080777 27.3781189,3.6117082 27.3220989,4.60260862 C27.2772829,5.59350905 27.3220989,6.58440946 27.2772829,7.57530989 C27.2324669,8.56621031 27.2884869,9.55711074 27.2324669,10.5480112 C27.210059,11.0044933 27.221263,11.4721093 27.221263,11.9285915 C27.221263,12.1512657 27.221263,12.1512657 27.4341388,12.1958006 C28.5433343,12.4630097 29.6525298,12.7302188 30.7617252,12.9974279 C30.8849692,13.0308291 31.0194172,13.0308291 31.1426611,12.9862942 C31.5235969,12.8304222 31.9045327,12.6968177 32.2966726,12.5520795 C33.6859679,12.0176612 35.0752633,11.483243 36.4645587,10.9488248 C38.2796058,10.2585346 40.0834489,9.56824445 41.8984961,8.87795427 C43.9040111,8.10972809 45.8983222,7.34150193 47.9038373,6.57327575 C48.1503252,6.48420605 48.408017,6.40627006 48.6881169,6.25039808 Z"
                          id="形状" fill="#B8BAC8" fill-rule="nonzero"></path>
                </g>
            </g>
        </g>
    </g>
</svg>