<?xml version="1.0" encoding="iso-8859-1"?>
<!-- Uploaded to: SVG Repo, www.svgrepo.com, Generator: SVG Repo Mixer Tools -->
<svg height="800px" width="800px" version="1.1" id="Layer_1" xmlns="http://www.w3.org/2000/svg"
     viewBox="0 0 499.2 499.2" xml:space="preserve">
<path style="fill:#788787;" d="M254.4,440.8c0,2.4-2.4,4.8-4.8,4.8l0,0c-2.4,0-4.8-2.4-4.8-4.8V24c0-2.4,2.4-4.8,4.8-4.8l0,0
	c2.4,0,4.8,2.4,4.8,4.8V440.8z"/>
    <path style="fill:#9E6226;" d="M9.6,418.4c10.4,45.6,113.6,80.8,240,80.8s229.6-36,240-80.8H9.6z"/>
    <g>
	<path style="fill:#AF7643;" d="M17.6,434.4c4.8,6.4,12,12.8,20,18.4h423.2c8.8-5.6,15.2-12,20-18.4H17.6z"/>
        <path style="fill:#AF7643;" d="M367.2,488c24-4.8,44.8-11.2,63.2-18.4H68.8c17.6,7.2,39.2,13.6,63.2,18.4H367.2z"/>
        <path style="fill:#AF7643;" d="M497.6,414.4c0,2.4-2.4,4.8-4.8,4.8H6.4c-3.2,0-4.8-2.4-4.8-4.8l0,0c0-3.2,2.4-4.8,4.8-4.8H492
		C495.2,409.6,497.6,411.2,497.6,414.4L497.6,414.4z"/>
</g>
    <circle style="fill:#788787;" cx="249.6" cy="18.4" r="18.4"/>
    <path style="fill:#0C91C4;" d="M454.4,371.2c0-7.2,0.8-14.4,0.8-22.4c0-166.4-84.8-302.4-189.6-305.6v328H454.4z"/>
    <path style="fill:#22B3E0;" d="M454.4,371.2c0-7.2,0.8-14.4,0.8-22.4c0-166.4-84.8-302.4-189.6-305.6"/>
    <polygon style="fill:#FFAE0B;" points="232.8,43.2 144.8,87.2 232.8,130.4 "/>
    <polygon style="fill:#FF860D;" points="232.8,80.8 144.8,87.2 232.8,130.4 "/>
    <polygon style="fill:#E00E0E;" points="231.2,144.8 231.2,363.2 89.6,363.2 "/>
    <polygon style="fill:#BF1111;" points="231.2,198.4 231.2,363.2 89.6,363.2 "/>
</svg>